<?xml version="1.0" standalone="no"?>
<!DOCTYPE svg PUBLIC "-//W3C//DTD SVG 20010904//EN"
 "http://www.w3.org/TR/2001/REC-SVG-20010904/DTD/svg10.dtd">
<svg version="1.0" xmlns="http://www.w3.org/2000/svg"
 width="300.000000pt" height="300.000000pt" viewBox="0 0 300.000000 300.000000"
 preserveAspectRatio="xMidYMid meet">
<metadata>
Created by potrace 1.14, written by Peter Selinger 2001-2017
</metadata>
<g transform="translate(0.000000,300.000000) scale(0.100000,-0.100000)"
fill="#000000" stroke="none">
<path d="M1683 2230 c-63 -36 -123 -109 -155 -187 -19 -48 -23 -77 -23 -168 0
-104 2 -114 33 -181 106 -225 346 -277 502 -108 146 158 141 443 -11 595 -61
61 -108 79 -209 79 -76 0 -90 -3 -137 -30z m336 -94 c15 -18 3 -46 -20 -46
-22 0 -34 22 -25 45 7 19 30 19 45 1z"/>
<path d="M901 2074 c-127 -63 -178 -252 -107 -392 28 -54 79 -106 119 -121 40
-15 122 -14 160 3 43 18 92 71 116 126 67 154 6 337 -131 394 -53 23 -97 20
-157 -10z m224 -104 c8 -24 -1 -40 -21 -40 -17 0 -28 24 -20 45 8 22 34 18 41
-5z"/>
<path d="M287 1938 c-30 -24 -35 -59 -21 -158 65 -469 364 -823 819 -973 88
-29 221 -57 273 -57 17 0 32 -4 32 -10 0 -6 40 -10 100 -10 60 0 100 4 100 10
0 6 13 10 29 10 16 0 64 7 107 16 301 62 577 266 778 576 73 112 78 137 38
178 -33 33 -66 38 -99 15 -11 -8 -50 -59 -87 -114 -163 -245 -381 -414 -621
-483 -69 -20 -103 -23 -250 -23 -188 0 -273 16 -425 77 -169 69 -342 200 -443
338 -92 123 -164 310 -191 494 -11 71 -18 93 -36 108 -26 21 -79 24 -103 6z"/>
<path d="M2436 1725 c-48 -17 -60 -29 -53 -50 6 -14 10 -14 39 2 21 11 56 17
98 18 80 0 115 -22 167 -102 28 -44 37 -52 48 -43 12 10 12 18 -5 50 -61 120
-174 168 -294 125z"/>
</g>
</svg>
